<svg xmlns="http://www.w3.org/2000/svg" height="40" width="40"><path d="M20.917 16.5v-1.958h8.666V16.5Zm0-5.458v-2h12.916v2Zm-7.792 22.875q-2.917 0-4.958-2.021-2.042-2.021-2.042-4.938 0-1.833.937-3.458.938-1.625 2.605-2.667V9.5q0-1.417 1-2.437 1-1.021 2.458-1.021 1.417 0 2.417 1.021 1 1.02 1 2.437v11.333q1.666 1.042 2.604 2.667.937 1.625.937 3.458 0 2.875-2.041 4.917-2.042 2.042-4.917 2.042Zm-5-6.959h9.958q0-1.333-.729-2.604-.729-1.271-2.062-2.062l-.75-.417V9.5q0-.625-.417-1.042-.417-.416-1-.416-.625 0-1.042.416-.416.417-.416 1.042v12.375l-.75.417q-1.375.791-2.084 2.062-.708 1.271-.708 2.604Z"/></svg>